<?xml version="1.0" encoding="UTF-8"?>
<svg id="Livello_2" data-name="Livello 2" xmlns="http://www.w3.org/2000/svg" viewBox="0 0 726.99 343.19">
  <defs>
    <style>
      .cls-1 {
        fill: #104a96;
      }
    </style>
  </defs>
  <g id="Livello_1-2" data-name="Livello 1">
    <g>
      <path class="cls-1" d="M643.45,0h-55.84l-8.93,25.12-46.01,129.67c-1.28-8.97-4.08-16.95-8.45-23.83-6.17-9.54-15.24-16.52-27.3-20.94,7.93-4.08,13.91-8.59,17.99-13.53,7.31-8.78,10.97-20.46,10.97-34.94s-3.61-26.11-10.83-36.23C503.05,8.88,482.63.43,453.81,0h-114.09v185.22l-44.77-127.29-19.18-54.36-1.23-3.56h-55.84l-54.36,153.22-14.77,41.54H49.33V0H0v237.45h186.03l16-48.81h86.98l15.57,48.81h141.54c11.97,0,23.12-1.09,33.38-3.23,10.26-2.14,19.13-6.13,26.68-11.92,1.23-.95,2.42-1.99,3.56-2.99l-6.46,18.14h51.66l16-48.81h86.94l15.57,48.81h53.51L643.45,0ZM214.28,147.71l12.77-38.98,17.85-54.41,9.12,28.58,9.97,31.19,10.73,33.62h-60.44ZM385.63,41.26h51.33c11.35,0,20.65,1.23,27.92,3.7,8.45,3.51,12.68,10.82,12.68,21.89,0,10.02-3.18,16.95-9.59,20.89-6.36,3.89-14.72,5.84-24.97,5.84h-57.36v-52.32ZM466.87,192.01c-5.7,2.8-13.67,4.18-23.93,4.18h-57.31v-63.29h58.12c10.11.1,17.99,1.47,23.6,4.04,10.02,4.61,15.05,13.1,15.05,25.45,0,14.58-5.18,24.45-15.53,29.63ZM583.15,147.71l3.42-10.4v-.05l9.26-28.2.33-1,14.34-43.78,3.28-9.97.19.52,29.67,92.87h-60.49Z"/>
      <g>
        <path class="cls-1" d="M.11,273.69h46.62v14.14H15.43v14.14h28.95v14.14H15.43v27.1H.11v-69.5Z"/>
        <path class="cls-1" d="M116.57,273.69h15.32v69.5h-15.32v-69.5Z"/>
        <path class="cls-1" d="M206.44,273.69h26.9c3.54,0,6.88.34,10.06,1.03,3.17.68,5.95,1.83,8.35,3.43,2.39,1.61,4.28,3.77,5.69,6.49s2.11,6.1,2.11,10.16c0,4.9-1.27,9.08-3.82,12.52-2.56,3.43-6.28,5.6-11.2,6.52l17.67,29.36h-18.35l-14.53-27.78h-7.56v27.78h-15.31v-69.5ZM221.75,302.45h9.03c1.37,0,2.83-.04,4.37-.14,1.54-.11,2.93-.39,4.18-.88,1.25-.49,2.27-1.27,3.09-2.31.82-1.04,1.22-2.51,1.22-4.42,0-1.77-.35-3.17-1.08-4.22-.72-1.04-1.64-1.85-2.75-2.41-1.12-.55-2.39-.93-3.82-1.13-1.45-.19-2.85-.29-4.23-.29h-10.01v15.8Z"/>
        <path class="cls-1" d="M319.91,273.69h47.22v14.14h-31.9v12.96h30.13v14.14h-30.13v14.14h33.67v14.14h-48.99v-69.5Z"/>
        <path class="cls-1" d="M433.93,273.69h20.8l29.55,48.3h.2v-48.3h15.31v69.5h-20.03l-30.33-49.48h-.2v49.48h-15.31v-69.5Z"/>
        <path class="cls-1" d="M558.73,329.06l35.24-41.82h-33.97v-13.55h52.52v13.55l-34.56,41.82h35.74v14.14h-54.97v-14.14Z"/>
        <path class="cls-1" d="M678,273.69h47.22v14.14h-31.9v12.96h30.13v14.14h-30.13v14.14h33.67v14.14h-48.99v-69.5Z"/>
      </g>
    </g>
  </g>
</svg>